<svg width="375" height="92" viewBox="0 0 375 92" fill="none" xmlns="http://www.w3.org/2000/svg">
<rect width="375" height="92" fill="#3C3A39"/>
<path d="M30.5518 61.2031H33.1885V70.0625C33.1885 70.877 33.0068 71.5977 32.6436 72.2246C32.2861 72.8457 31.7793 73.3262 31.123 73.666C30.4668 74.0059 29.7256 74.1758 28.8994 74.1758C27.5459 74.1758 26.4912 73.833 25.7354 73.1475C24.9795 72.4561 24.6016 71.4805 24.6016 70.2207H27.2559C27.2559 70.8477 27.3877 71.3105 27.6514 71.6094C27.915 71.9082 28.3311 72.0576 28.8994 72.0576C29.4033 72.0576 29.8047 71.8848 30.1035 71.5391C30.4023 71.1934 30.5518 70.7012 30.5518 70.0625V61.2031ZM34.8848 69.1572C34.8848 68.2139 35.0664 67.373 35.4297 66.6348C35.793 65.8965 36.3145 65.3252 36.9941 64.9209C37.6797 64.5166 38.4736 64.3145 39.376 64.3145C40.6592 64.3145 41.7051 64.707 42.5137 65.4922C43.3281 66.2773 43.7822 67.3438 43.876 68.6914L43.8936 69.3418C43.8936 70.8008 43.4863 71.9727 42.6719 72.8574C41.8574 73.7363 40.7646 74.1758 39.3936 74.1758C38.0225 74.1758 36.9268 73.7363 36.1064 72.8574C35.292 71.9785 34.8848 70.7832 34.8848 69.2715V69.1572ZM37.4248 69.3418C37.4248 70.2441 37.5947 70.9355 37.9346 71.416C38.2744 71.8906 38.7607 72.1279 39.3936 72.1279C40.0088 72.1279 40.4893 71.8936 40.835 71.4248C41.1807 70.9502 41.3535 70.1943 41.3535 69.1572C41.3535 68.2725 41.1807 67.5869 40.835 67.1006C40.4893 66.6143 40.0029 66.3711 39.376 66.3711C38.7549 66.3711 38.2744 66.6143 37.9346 67.1006C37.5947 67.5811 37.4248 68.3281 37.4248 69.3418ZM47.9365 65.5273C48.6104 64.7188 49.457 64.3145 50.4766 64.3145C52.5391 64.3145 53.585 65.5127 53.6143 67.9092V74H51.0742V67.9795C51.0742 67.4346 50.957 67.0332 50.7227 66.7754C50.4883 66.5117 50.0986 66.3799 49.5537 66.3799C48.8096 66.3799 48.2705 66.667 47.9365 67.2412V74H45.3965V60.5H47.9365V65.5273ZM57.8682 64.4902L57.9473 65.5889C58.627 64.7393 59.5381 64.3145 60.6807 64.3145C61.6885 64.3145 62.4385 64.6104 62.9307 65.2021C63.4229 65.7939 63.6748 66.6787 63.6865 67.8564V74H61.1465V67.918C61.1465 67.3789 61.0293 66.9893 60.7949 66.749C60.5605 66.5029 60.1709 66.3799 59.626 66.3799C58.9111 66.3799 58.375 66.6846 58.0176 67.2939V74H55.4775V64.4902H57.8682ZM70.2695 74V61.2031H74.207C75.332 61.2031 76.3369 61.458 77.2217 61.9678C78.1123 62.4717 78.8066 63.1924 79.3047 64.1299C79.8027 65.0615 80.0518 66.1221 80.0518 67.3115V67.9004C80.0518 69.0898 79.8057 70.1475 79.3135 71.0732C78.8271 71.999 78.1387 72.7168 77.248 73.2266C76.3574 73.7363 75.3525 73.9941 74.2334 74H70.2695ZM72.9062 63.3389V71.8818H74.1807C75.2119 71.8818 76 71.5449 76.5449 70.8711C77.0898 70.1973 77.3682 69.2334 77.3799 67.9795V67.3027C77.3799 66.002 77.1104 65.0176 76.5713 64.3496C76.0322 63.6758 75.2441 63.3389 74.207 63.3389H72.9062ZM81.4141 69.1572C81.4141 68.2139 81.5957 67.373 81.959 66.6348C82.3223 65.8965 82.8438 65.3252 83.5234 64.9209C84.209 64.5166 85.0029 64.3145 85.9053 64.3145C87.1885 64.3145 88.2344 64.707 89.043 65.4922C89.8574 66.2773 90.3115 67.3438 90.4053 68.6914L90.4229 69.3418C90.4229 70.8008 90.0156 71.9727 89.2012 72.8574C88.3867 73.7363 87.2939 74.1758 85.9229 74.1758C84.5518 74.1758 83.4561 73.7363 82.6357 72.8574C81.8213 71.9785 81.4141 70.7832 81.4141 69.2715V69.1572ZM83.9541 69.3418C83.9541 70.2441 84.124 70.9355 84.4639 71.416C84.8037 71.8906 85.29 72.1279 85.9229 72.1279C86.5381 72.1279 87.0186 71.8936 87.3643 71.4248C87.71 70.9502 87.8828 70.1943 87.8828 69.1572C87.8828 68.2725 87.71 67.5869 87.3643 67.1006C87.0186 66.6143 86.5322 66.3711 85.9053 66.3711C85.2842 66.3711 84.8037 66.6143 84.4639 67.1006C84.124 67.5811 83.9541 68.3281 83.9541 69.3418ZM96.3643 74.1758C94.9697 74.1758 93.833 73.748 92.9541 72.8926C92.0811 72.0371 91.6445 70.8975 91.6445 69.4736V69.2275C91.6445 68.2725 91.8291 67.4199 92.1982 66.6699C92.5674 65.9141 93.0889 65.334 93.7627 64.9297C94.4424 64.5195 95.2158 64.3145 96.083 64.3145C97.3838 64.3145 98.4062 64.7246 99.1504 65.5449C99.9004 66.3652 100.275 67.5283 100.275 69.0342V70.0713H94.2197C94.3018 70.6924 94.5479 71.1904 94.958 71.5654C95.374 71.9404 95.8984 72.1279 96.5312 72.1279C97.5098 72.1279 98.2744 71.7734 98.8252 71.0645L100.073 72.4619C99.6924 73.001 99.1768 73.4229 98.5264 73.7275C97.876 74.0264 97.1553 74.1758 96.3643 74.1758ZM96.0742 66.3711C95.5703 66.3711 95.1602 66.541 94.8438 66.8809C94.5332 67.2207 94.334 67.707 94.2461 68.3398H97.7793V68.1377C97.7676 67.5752 97.6152 67.1416 97.3223 66.8369C97.0293 66.5264 96.6133 66.3711 96.0742 66.3711Z" fill="white"/>
<path fill-rule="evenodd" clip-rule="evenodd" d="M322 63C322 62.4477 322.448 62 323 62H339C339.552 62 340 62.4477 340 63C340 63.5523 339.552 64 339 64H323C322.448 64 322 63.5523 322 63ZM322 68C322 67.4477 322.448 67 323 67L339 67C339.552 67 340 67.4477 340 68C340 68.5523 339.552 69 339 69L323 69C322.448 69 322 68.5523 322 68ZM323 72C322.448 72 322 72.4477 322 73C322 73.5523 322.448 74 323 74H339C339.552 74 340 73.5523 340 73C340 72.4477 339.552 72 339 72H323Z" fill="white"/>
<rect opacity="0.35" x="336.5" y="17.8333" width="21" height="10.3333" rx="2.16667" stroke="white"/>
<path opacity="0.4" d="M359 21V25C359.805 24.6612 360.328 23.8731 360.328 23C360.328 22.1269 359.805 21.3388 359 21Z" fill="white"/>
<rect x="338" y="19.3333" width="18" height="7.33333" rx="1.33333" fill="white"/>
<path fill-rule="evenodd" clip-rule="evenodd" d="M323.33 19.6079C325.546 19.608 327.677 20.4594 329.283 21.9862C329.404 22.1041 329.597 22.1026 329.716 21.9829L330.872 20.8162C330.933 20.7555 330.966 20.6733 330.966 20.5877C330.965 20.5021 330.931 20.4202 330.87 20.3602C326.655 16.3207 320.005 16.3207 315.79 20.3602C315.729 20.4202 315.694 20.502 315.693 20.5876C315.693 20.6732 315.726 20.7555 315.787 20.8162L316.943 21.9829C317.062 22.1028 317.255 22.1043 317.376 21.9862C318.982 20.4593 321.114 19.6079 323.33 19.6079ZM323.33 23.4036C324.547 23.4035 325.721 23.856 326.624 24.6732C326.746 24.7892 326.938 24.7867 327.057 24.6676L328.212 23.5009C328.273 23.4397 328.307 23.3567 328.306 23.2704C328.305 23.1842 328.269 23.1018 328.207 23.0419C325.459 20.4855 321.203 20.4855 318.455 23.0419C318.393 23.1018 318.357 23.1842 318.357 23.2705C318.356 23.3568 318.39 23.4398 318.451 23.5009L319.605 24.6676C319.724 24.7867 319.916 24.7892 320.038 24.6732C320.94 23.8566 322.113 23.4041 323.33 23.4036ZM325.643 25.9574C325.645 26.0439 325.611 26.1273 325.549 26.1879L323.552 28.2036C323.493 28.2628 323.413 28.2961 323.33 28.2961C323.247 28.2961 323.167 28.2628 323.108 28.2036L321.111 26.1879C321.049 26.1272 321.015 26.0438 321.017 25.9573C321.019 25.8708 321.056 25.7889 321.12 25.7309C322.396 24.652 324.264 24.652 325.54 25.7309C325.604 25.7889 325.641 25.8709 325.643 25.9574Z" fill="white"/>
<path fill-rule="evenodd" clip-rule="evenodd" d="M309.666 17.6665H308.666C308.114 17.6665 307.666 18.1142 307.666 18.6665V27.3332C307.666 27.8855 308.114 28.3332 308.666 28.3332H309.666C310.218 28.3332 310.666 27.8855 310.666 27.3332V18.6665C310.666 18.1142 310.218 17.6665 309.666 17.6665ZM303.999 19.9998H304.999C305.552 19.9998 305.999 20.4476 305.999 20.9998V27.3332C305.999 27.8855 305.552 28.3332 304.999 28.3332H303.999C303.447 28.3332 302.999 27.8855 302.999 27.3332V20.9998C302.999 20.4476 303.447 19.9998 303.999 19.9998ZM300.333 22.3332H299.333C298.78 22.3332 298.333 22.7809 298.333 23.3332V27.3332C298.333 27.8855 298.78 28.3332 299.333 28.3332H300.333C300.885 28.3332 301.333 27.8855 301.333 27.3332V23.3332C301.333 22.7809 300.885 22.3332 300.333 22.3332ZM295.666 24.3332H294.666C294.114 24.3332 293.666 24.7809 293.666 25.3332V27.3332C293.666 27.8855 294.114 28.3332 294.666 28.3332H295.666C296.218 28.3332 296.666 27.8855 296.666 27.3332V25.3332C296.666 24.7809 296.218 24.3332 295.666 24.3332Z" fill="white"/>
<path d="M40.0802 24.8369C39.5242 25.4248 38.8748 25.7188 38.1319 25.7188C37.2569 25.7188 36.5596 25.4134 36.0401 24.8027C35.5206 24.1875 35.2608 23.3809 35.2608 22.3828C35.2608 21.7266 35.393 21.1318 35.6573 20.5986C35.9216 20.0654 36.2976 19.6507 36.7852 19.3545C37.2729 19.0583 37.838 18.9102 38.4805 18.9102C39.4832 18.9102 40.2784 19.2839 40.8663 20.0312C41.4542 20.7786 41.7481 21.779 41.7481 23.0322V23.4971C41.7481 25.2926 41.3425 26.6621 40.5313 27.6055C39.7201 28.5488 38.5102 29.0273 36.9014 29.041H36.7032V27.667H36.9425C37.9223 27.6533 38.6742 27.4186 39.1983 26.9629C39.7224 26.5026 40.0164 25.7939 40.0802 24.8369ZM38.4805 24.4199C38.8132 24.4199 39.1254 24.3242 39.4171 24.1328C39.7087 23.9414 39.9343 23.6771 40.0938 23.3398V22.6904C40.0938 21.9567 39.9434 21.3665 39.6427 20.9199C39.3419 20.4733 38.9522 20.25 38.4737 20.25C37.9952 20.25 37.6124 20.4482 37.3253 20.8447C37.0427 21.2367 36.9014 21.7334 36.9014 22.335C36.9014 22.9593 37.045 23.4629 37.3321 23.8457C37.6192 24.2285 38.002 24.4199 38.4805 24.4199ZM44.1546 27.25C44.4645 27.25 44.7038 27.3389 44.8724 27.5166C45.041 27.6898 45.1254 27.9085 45.1254 28.1729C45.1254 28.4326 45.041 28.6491 44.8724 28.8223C44.7038 28.9909 44.4645 29.0752 44.1546 29.0752C43.8584 29.0752 43.6237 28.9909 43.4505 28.8223C43.2774 28.6536 43.1908 28.4372 43.1908 28.1729C43.1908 27.9085 43.2751 27.6898 43.4437 27.5166C43.6123 27.3389 43.8493 27.25 44.1546 27.25ZM44.1546 21.4463C44.4645 21.4463 44.7038 21.5352 44.8724 21.7129C45.041 21.8861 45.1254 22.1048 45.1254 22.3691C45.1254 22.6289 45.041 22.8454 44.8724 23.0186C44.7038 23.1872 44.4645 23.2715 44.1546 23.2715C43.8584 23.2715 43.6237 23.1872 43.4505 23.0186C43.2774 22.8499 43.1908 22.6335 43.1908 22.3691C43.1908 22.1048 43.2751 21.8861 43.4437 21.7129C43.6123 21.5352 43.8493 21.4463 44.1546 21.4463ZM52.1051 25.4521H53.3424V26.7852H52.1051V29H50.444V26.7852H46.1442L46.0963 25.7734L50.3893 19.0469H52.1051V25.4521ZM47.8395 25.4521H50.444V21.2959L50.3209 21.5146L47.8395 25.4521ZM58.6611 29H57.0068V21.0088L54.5663 21.8428V20.4414L58.4491 19.0127H58.6611V29Z" fill="white"/>
</svg>
